<svg xmlns="http://www.w3.org/2000/svg" xmlns:xlink="http://www.w3.org/1999/xlink" width="700.31" height="456.191" viewBox="0 0 700.31 456.191">
  <defs>
    <linearGradient id="linear-gradient" x1="0.5" y1="1" x2="0.5" gradientUnits="objectBoundingBox">
      <stop offset="0" stop-color="gray" stop-opacity="0.251"/>
      <stop offset="0.54" stop-color="gray" stop-opacity="0.122"/>
      <stop offset="1" stop-color="gray" stop-opacity="0.102"/>
    </linearGradient>
  </defs>
  <g id="Group_21" data-name="Group 21" transform="translate(-800 -1801)">
    <g id="Group_7" data-name="Group 7" transform="translate(800 1801)">
      <g id="undraw_version_control_9bpv" transform="translate(0 0)">
        <path id="Path_3" data-name="Path 3" d="M505.223,178.492c-43.656-1.518-85.234-15.609-124.943-31.028s-79.028-32.506-121.638-40.674c-27.406-5.255-58.745-6-80.829,8.695C156.566,129.649,149.7,154.034,146,176.678c-2.772,17.045-4.411,34.974,3.2,50.927,5.282,11.076,14.664,20.384,21.153,30.995,22.57,36.91,6.617,82.428-17.848,118.468-11.467,16.9-24.782,33.052-33.639,51.035s-12.951,38.617-5.207,56.978c7.683,18.212,25.983,31.865,45.8,41.477,40.263,19.521,87.689,25.113,133.975,28.276,102.407,7.008,205.367,3.973,308.044.938,38-1.126,76.168-2.266,113.55-8.142,20.762-3.265,42.2-8.445,57.268-20.91,19.13-15.872,23.872-42.752,11.056-62.65-21.5-33.383-80.944-41.679-95.992-77.5-8.276-19.716.223-41.686,12.243-59.972,25.794-39.237,69.025-73.652,71.3-118.5,1.565-30.8-19.217-61.645-51.352-76.222-33.686-15.278-80.39-13.356-105.227,11.932C588.73,169.811,543.766,179.828,505.223,178.492Z" transform="translate(-90.227 -103.348)" fill="#6c63ff" opacity="0.09"/>
        <path id="Path_4" data-name="Path 4" d="M392.821,601.875a25.6,25.6,0,0,0-2.7-7.035A24.641,24.641,0,0,0,385.7,590c-4.89-4.438-10.894-8.944-17.376-7.825a23.2,23.2,0,0,0-5.76,2.1c-.944.438-1.9.877-2.867,1.248a14.28,14.28,0,0,1-8.647.755c-1.484-.4-2.867-1.113-4.331-1.558a13.729,13.729,0,0,0-2.125-.459,36.2,36.2,0,0,0,4.108-2.165c7.271-4.452,13.072-12.5,12.263-21.106a34.847,34.847,0,0,0-2.253-8.4l-2.59-7.164c-1.12-3.1-2.28-6.266-4.324-8.843a22.375,22.375,0,0,0-8.857-6.273c-7.184-3.123-15.035-4.223-22.786-5.288l-.54-.074V441.229a5.4,5.4,0,0,0-5.4-5.4H304.039q-.675-4.128-1.349-8.243c-1.282-7.831-2.61-15.8-6.219-22.853-2.361-4.614-6.118-9.018-11.184-9.922a10.847,10.847,0,0,1-2.907-.675c-1.484-.728-2.293-2.347-3.433-3.541-2.941-3.083-7.723-3.13-11.663-4.722-3.481-1.383-6.327-3.986-9.5-5.99s-7.11-3.427-10.617-2.125a7.117,7.117,0,0,1-.074.762l-2.253-1.039a24.818,24.818,0,0,1-6.853-4.128c-2.5-2.361-3.838-5.491-4.877-8.816-.108-.344-.209-.675-.317-1.046a31.318,31.318,0,0,0,8.391-16.02l.546,1.774a11.778,11.778,0,0,0,.432,1.174,4.627,4.627,0,0,0,1.349,1.909,2.4,2.4,0,0,0,.567.331,2.362,2.362,0,0,0,.58.148,2.159,2.159,0,0,0,.836-.061,3.191,3.191,0,0,0,2.024-1.875,4.047,4.047,0,0,0,.236-.823,4.256,4.256,0,0,0,.047-.513v-.7a1.316,1.316,0,0,0-.034-.337v-.175a1.963,1.963,0,0,0-.067-.4c-.027-.128,0-.074,0-.108-.034-.169-.074-.344-.108-.513v-.128c0-.04-.061-.277-.094-.418s-.047-.182-.067-.277v-.04h0c-.067-.27-.128-.533-.189-.8a23.19,23.19,0,0,1-.371-7.123,76.269,76.269,0,0,1,1.929-10.354l.142-.614c.054-.236.108-.472.155-.715.108-.486.216-.971.317-1.464h0l.243-1.241.182-1.106v-.142a31.98,31.98,0,0,0,.236-7.575h0a15.941,15.941,0,0,0-3.8-9.524c-1.693-1.882-3.926-3.271-5.5-5.248-1.47-1.848-2.3-4.128-3.825-5.943-4.209-5.025-15.015-8.9-21.646-9.572-7.6-.769-19.865,1.174-25.99,5.659-2.266,1.653-3.818,4.047-5.4,6.314-2.9,4.216-6.192,8.425-10.84,10.792-1.754.89-3.764,1.565-4.931,3.116a8.425,8.425,0,0,0-1.315,3.494,69.282,69.282,0,0,0-1.39,13.342h0v1.686A12.3,12.3,0,0,0,166.5,334.3c.108.229.229.452.357.675l.081.142a26.83,26.83,0,0,1,2.158,3.676,4.87,4.87,0,0,1,.331,1.12,8.257,8.257,0,0,1-.189,2.954h0a2.6,2.6,0,0,1-.088.445l-.061.29a.569.569,0,0,1-.054.3c-.054.29-.1.58-.142.863h0a6.07,6.07,0,0,0,.148,2.334,3.069,3.069,0,0,0,1.5,2.024,4.386,4.386,0,0,0,1.214.378c.425.074.857.121,1.275.216a6.292,6.292,0,0,1,1.545.573,6.219,6.219,0,0,1,1.3.836,7.422,7.422,0,0,1,.56.567A9.443,9.443,0,0,1,177.4,353q.216.357.4.728a16.641,16.641,0,0,1,1.153,3.049c.175.627.324,1.261.452,1.9.061.283.115.567.162.843s.094.56.135.836h0a1.963,1.963,0,0,0,.54-.108,3.645,3.645,0,0,0,1.855-2.631c.054-.189.1-.371.142-.553.155-.675.317-1.417.472-2.125a31.278,31.278,0,0,0,12.31,13.558c.189.56.371,1.113.533,1.68.884,3.056,1.309,6.253-.223,8.924a9.443,9.443,0,0,1-4.978,3.872,3.292,3.292,0,0,0-1.113-.944c-1.774-.89-3.906.189-5.4,1.518-2.7,2.442-4.9,5.943-8.445,6.745-1.282.3-2.7.236-3.764,1.019a8.769,8.769,0,0,0-1.747,2.293,8.04,8.04,0,0,1-6.9,3.44c-1.234-.061-2.7-.344-3.541.56-.627.675-.675,1.74-1.349,2.381-.9.89-2.388.459-3.649.4a7.291,7.291,0,0,0-6,3.44,22.476,22.476,0,0,0-2.7,6.745v.04a4.823,4.823,0,0,0-.492.411,7.116,7.116,0,0,0-1.491,2.415,115.256,115.256,0,0,0-9.511,39.244,4.047,4.047,0,0,1-.432,1.9,9.356,9.356,0,0,1-.992,1.079,3.784,3.784,0,0,0,.627,5.4,4.249,4.249,0,0,1,.722-.958c-.074.31-.142.614-.189.89a23.939,23.939,0,0,0-.074,5.936q.958,14.057,1.936,28.094c.182,2.651.364,5.3.607,7.939q.708,7.676,2.024,15.292a6.6,6.6,0,0,0,.148.675c-5.5,1.747-10.388,4.9-12.445,10.172-.715,1.821-1.039,3.8-1.916,5.551-.965,1.916-2.55,3.447-3.6,5.322-1.814,3.224-1.9,7.177-1.234,10.792,1.275,7.049,5.086,13.349,10.118,18.475h-.675a10.55,10.55,0,0,0-4.607,1.653c-10.644,6.219-16.728,19.561-14.509,31.743a13.618,13.618,0,0,0,2.793,6.61,10.462,10.462,0,0,0,4.911,3.008,17.064,17.064,0,0,0,3.622.674c8.3.675,16.33-3.17,24.647-3.494a66.093,66.093,0,0,1,8.25.384q6.01.5,12.04.634c6.536.155,10.212-1.585,14.381-6.469a17.607,17.607,0,0,0,2.543-4.007c3.548-.2,7.467-.513,10.3-.742l.04.391c.155,1.349.391,2.9,1.47,3.75a5.134,5.134,0,0,0,2.024.83c6.813,1.673,13.706,3.373,20.722,3.373a87.5,87.5,0,0,0,9.841-.755l12.324-1.423a61.384,61.384,0,0,1,10.59,2.307c3.562,1.207,6.887,3,10.368,4.425,8.094,3.278,16.8,4.452,25.416,5.6,1.47.2,3.157.331,4.243-.674,1.4-1.349.938-3.6.54-5.491-.162-.776-.283-1.551-.378-2.334a118.216,118.216,0,0,1,17.025,5.909l.965.425c.283,1.47,1.639,2.644,2.941,4.229a10.788,10.788,0,0,0,1.491,1.848,4.972,4.972,0,0,0,2.138.769,99.708,99.708,0,0,0,27.609,1.248,28.238,28.238,0,0,1,5.693-.2,24.671,24.671,0,0,1,4.115.924l7.8,2.24c5.754,1.646,11.642,3.312,17.612,2.941a22.53,22.53,0,0,0,3.6-.519c4.722-1.093,9.12-3.73,11.386-7.973C396.025,615.311,394.547,608.215,392.821,601.875Z" transform="translate(-90.141 -173.891)" fill="url(#linear-gradient)"/>
        <path id="Path_5" data-name="Path 5" d="M204.967,744.865c-1.423-3.238-2.772-6.961-1.349-10.2a8.668,8.668,0,0,1,4.486-4.216,21.587,21.587,0,0,1,6.071-1.5,84.724,84.724,0,0,1,19.737-.27c.479,3.791-.533,7.636-1.4,11.3-.789,3.373-1.241,3.872-4.722,4.047C225.533,744.15,205.5,746.059,204.967,744.865Z" transform="translate(-120.639 -318.196)" fill="#fbbebe"/>
        <ellipse id="Ellipse_1" data-name="Ellipse 1" cx="96.458" cy="26.981" rx="96.458" ry="26.981" transform="translate(47.937 350.865)" fill="#464353"/>
        <ellipse id="Ellipse_2" data-name="Ellipse 2" cx="96.458" cy="26.981" rx="96.458" ry="26.981" transform="translate(47.937 350.865)" opacity="0.1"/>
        <path id="Path_6" data-name="Path 6" d="M288.985,442.84A30.01,30.01,0,0,1,273.511,456.9a38.84,38.84,0,0,1-12.283,2.334,34.988,34.988,0,0,1-13.558-1.653c-5.774-2.091-10.57-6.368-14.165-11.352a69.3,69.3,0,0,1-8.223-16.418c-1.133-2.988-2.212-6.172-1.68-9.329,3.474-.789,7.278-1.949,9.072-5.032,1.531-2.644,1.106-5.814.223-8.836-.25-.857-.54-1.707-.83-2.523-.675-1.956-3-5.673-1.349-7.346,1.032-1.059,5.356-1.6,6.846-2.287,4.594-2.118,8.83-5.18,13.875-6.185,4.364-.87,8.87-.054,13.228.85a4.35,4.35,0,0,1,1.632.587,3.926,3.926,0,0,1,1.214,1.821c1.241,3.022,1.97,6.361,2.968,9.511,1.039,3.3,2.374,6.395,4.877,8.735a24.9,24.9,0,0,0,6.86,4.088L288.2,416.6a7.858,7.858,0,0,1,2.826,1.828,7.157,7.157,0,0,1,1.349,3.669A34.279,34.279,0,0,1,288.985,442.84Z" transform="translate(-127.295 -207.428)" fill="#fbbebe"/>
        <path id="Path_7" data-name="Path 7" d="M273.679,401.04a31.028,31.028,0,0,1-37.551,5.572c-.25-.857-.54-1.707-.83-2.523-.675-1.956-3-5.673-1.349-7.346,1.032-1.059,5.356-1.6,6.846-2.287,4.594-2.118,8.83-5.18,13.875-6.185,4.364-.87,8.87-.054,13.228.85a4.35,4.35,0,0,1,1.632.587,3.926,3.926,0,0,1,1.214,1.821C271.953,394.551,272.681,397.89,273.679,401.04Z" transform="translate(-130.519 -207.428)" opacity="0.1"/>
        <circle id="Ellipse_3" data-name="Ellipse 3" cx="31.028" cy="31.028" r="31.028" transform="translate(89.758 139.737)" fill="#fbbebe"/>
        <path id="Path_8" data-name="Path 8" d="M323.123,491.31l-2.55-15.447c-1.288-7.75-2.617-15.649-6.219-22.63-2.368-4.573-6.125-8.931-11.19-9.835a10.828,10.828,0,0,1-2.914-.675c-1.484-.715-2.293-2.32-3.433-3.508-2.941-3.049-7.73-3.1-11.669-4.648-3.481-1.349-6.327-3.946-9.5-5.929s-7.116-3.373-10.624-2.1c-.567,6.037-1.167,12.209-3.73,17.706a26.5,26.5,0,0,1-39.973,9.956c-6.01-4.526-9.862-11.507-11.656-18.813-.438-1.781-.938-3.825-2.577-4.641-1.774-.89-3.906.189-5.4,1.5-2.7,2.422-4.9,5.889-8.452,6.7-1.282.3-2.7.236-3.764,1.012a8.566,8.566,0,0,0-1.754,2.273,8.094,8.094,0,0,1-6.9,3.413c-1.234-.061-2.7-.344-3.541.553-.627.675-.675,1.727-1.349,2.354-.911.884-2.388.452-3.656.4a7.376,7.376,0,0,0-6.01,3.373,21.758,21.758,0,0,0-2.7,6.651c7.373,16.418,14.118,32.856,21.491,49.274a4.2,4.2,0,0,1,.533,2.024,4.931,4.931,0,0,1-.917,2.024c-3.615,5.808-3.5,13.113-3.1,19.939s.884,14.037-2.165,20.155c-.83,1.68-1.909,3.218-2.7,4.9-1.848,3.8-2.516,15.973-1.437,20.06h152.5c-2.907-7.993-1.8-24.034-1.194-32.519.425-5.936-.675-11.865-1.147-17.8C324.4,514.912,325.127,503.411,323.123,491.31Z" transform="translate(-107.802 -219.844)" fill="#fff"/>
        <path id="Path_9" data-name="Path 9" d="M146.141,544.571a23.879,23.879,0,0,0-.081,5.889L148,578.3c.182,2.624.364,5.241.607,7.858.465,5.079,1.16,10.118,2.024,15.15a2.7,2.7,0,0,0,2.766,2.624c8.533,1.808,17.349,1.734,26.057,1.241,13.288-.742,26.556-2.435,39.865-2.145,3.427.074,7.42,0,9.5-2.7s.87-7.062-1.841-9.241-6.395-2.7-9.875-2.7c-4.607-.047-9.214.607-13.808.337a68.4,68.4,0,0,1-12.425-2.287L179.4,583.586a44.2,44.2,0,0,1,3.015-10.044c2.253-5.848,4.357-11.892,4.4-18.158s-2.32-12.857-7.454-16.445c-4.223-2.948-9.659-3.494-14.806-3.373-3.744.108-10.212-.789-13.632.675C148.212,537.428,146.647,541.92,146.141,544.571Z" transform="translate(-102.056 -255.432)" fill="#fbbebe"/>
        <path id="Path_10" data-name="Path 10" d="M353.005,643.092c2.246-.857,4.722-.546,7.13-.223,7.75,1.059,15.615,2.145,22.8,5.241a22.386,22.386,0,0,1,8.863,6.212,30.733,30.733,0,0,1,4.324,8.769l2.59,7.1a34.161,34.161,0,0,1,2.26,8.317c.809,8.492-5,16.5-12.3,20.91s-15.905,5.983-24.283,7.629-16.789,3.467-25.133,5.4a101.174,101.174,0,0,1-11.824,2.327c-8.931,1.012-18.266-.479-26.752,2.476-3.373,1.18-6.685,2.934-10.185,3.75a63.362,63.362,0,0,1-7.042,1.072L267.387,723.9a87.6,87.6,0,0,1-9.848.755c-7.015,0-13.916-1.659-20.728-3.319a5.241,5.241,0,0,1-2.024-.816c-1.079-.85-1.315-2.354-1.47-3.717q-1.032-9.045-1.808-18.111c-.162-1.963-.283-4.088.789-5.74,1.349-2.024,3.98-2.658,6.381-3.049a166.531,166.531,0,0,1,30.813-2.138c3.919-3.919,10.381-3.939,15.514-6.071a46.145,46.145,0,0,0,5.47-2.975,71.5,71.5,0,0,1,30.037-9.491,27.961,27.961,0,0,0,6.145-.877c3.973-1.234,7.6-4.594,11.676-3.771.506-1.4.857-3.265,2.024-4.223.58-.492,1.3-.823,1.828-1.349,1.126-1.14,1.228-2.934,1.059-4.526a13.255,13.255,0,0,1-.135-4.776,6.6,6.6,0,0,1,.749-1.666A9.118,9.118,0,0,1,353.005,643.092Z" transform="translate(-129.879 -290.305)" fill="#464353"/>
        <path id="Path_11" data-name="Path 11" d="M353.005,643.092c2.246-.857,4.722-.546,7.13-.223,7.75,1.059,15.615,2.145,22.8,5.241a22.386,22.386,0,0,1,8.863,6.212,30.733,30.733,0,0,1,4.324,8.769l2.59,7.1a34.161,34.161,0,0,1,2.26,8.317c.809,8.492-5,16.5-12.3,20.91s-15.905,5.983-24.283,7.629-16.789,3.467-25.133,5.4a101.174,101.174,0,0,1-11.824,2.327c-8.931,1.012-18.266-.479-26.752,2.476-3.373,1.18-6.685,2.934-10.185,3.75a63.362,63.362,0,0,1-7.042,1.072L267.387,723.9a87.6,87.6,0,0,1-9.848.755c-7.015,0-13.916-1.659-20.728-3.319a5.241,5.241,0,0,1-2.024-.816c-1.079-.85-1.315-2.354-1.47-3.717q-1.032-9.045-1.808-18.111c-.162-1.963-.283-4.088.789-5.74,1.349-2.024,3.98-2.658,6.381-3.049a166.531,166.531,0,0,1,30.813-2.138c3.919-3.919,10.381-3.939,15.514-6.071a46.145,46.145,0,0,0,5.47-2.975,71.5,71.5,0,0,1,30.037-9.491,27.961,27.961,0,0,0,6.145-.877c3.973-1.234,7.6-4.594,11.676-3.771.506-1.4.857-3.265,2.024-4.223.58-.492,1.3-.823,1.828-1.349,1.126-1.14,1.228-2.934,1.059-4.526a13.255,13.255,0,0,1-.135-4.776,6.6,6.6,0,0,1,.749-1.666A9.118,9.118,0,0,1,353.005,643.092Z" transform="translate(-129.879 -290.305)" opacity="0.05"/>
        <path id="Path_12" data-name="Path 12" d="M180.785,742.461c-4.175,4.836-7.852,6.563-14.388,6.408q-6.03-.142-12.047-.627a67.6,67.6,0,0,0-8.256-.384c-8.324.324-16.357,4.135-24.661,3.467a17.482,17.482,0,0,1-3.622-.675,10.543,10.543,0,0,1-4.917-2.981,13.435,13.435,0,0,1-2.793-6.55,30.856,30.856,0,0,1,14.516-31.44,10.644,10.644,0,0,1,4.614-1.639,10.934,10.934,0,0,1,4.668,1.025l.1.04a35.3,35.3,0,0,1,11.561,7.717,6.517,6.517,0,0,0,1.767,1.423,6.072,6.072,0,0,0,2.084.391l8.863.56a21,21,0,0,1,4.452.614,35.389,35.389,0,0,1,4.681,2.024c4.769,2.131,10.057,2.7,15.211,3.521a2.273,2.273,0,0,1,1.349.54,2.111,2.111,0,0,1,.418.877,17.207,17.207,0,0,1-3.6,15.69Z" transform="translate(-90.251 -311.624)" fill="#3f3d56"/>
        <path id="Path_13" data-name="Path 13" d="M134,709.116a53.22,53.22,0,0,0-8.87,11.089,55.5,55.5,0,0,0-7.244,21.949,40.741,40.741,0,0,0-.074,8.506,10.542,10.542,0,0,1-4.917-2.981,13.436,13.436,0,0,1-2.793-6.55,30.856,30.856,0,0,1,14.516-31.44,10.644,10.644,0,0,1,4.614-1.639,10.935,10.935,0,0,1,4.668,1.025Z" transform="translate(-90.251 -311.627)" opacity="0.1"/>
        <path id="Path_14" data-name="Path 14" d="M390.248,733.9c4.958-.135,10.523-.385,14.165,2.954,3.474,3.157,3.933,8.364,4.162,13.052l.263,5.443a10.874,10.874,0,0,1-.519,4.911c-1.187,2.7-4.445,4-7.42,3.845s-5.707-1.457-8.425-2.631a118.514,118.514,0,0,0-22.934-7.224q.384-5.646,1.282-11.238c.411-2.583.479-6.907,2.206-9.052,1.828-2.266,4.209-1.039,6.691-.621A53.726,53.726,0,0,0,390.248,733.9Z" transform="translate(-174.839 -319.627)" fill="#fbbebe"/>
        <path id="Path_15" data-name="Path 15" d="M179.355,646.23c0,.675-1.059,0-1.153-.722-.742-5.457-5.072-9.956-10.118-12.142s-10.792-2.3-16.256-1.781c-8.263.782-17.538,3.946-20.56,11.669-.715,1.808-1.039,3.764-1.916,5.5-.971,1.9-2.556,3.42-3.609,5.268-1.814,3.2-1.889,7.116-1.234,10.732,1.761,9.646,8.357,17.9,16.351,23.609s17.335,9.126,26.651,12.2a462.177,462.177,0,0,0,75.547,18.044,72.6,72.6,0,0,1,12.33,2.543c3.562,1.194,6.894,2.981,10.374,4.384,8.094,3.251,16.8,4.411,25.43,5.551,1.47.189,3.157.324,4.243-.674,1.4-1.3.938-3.568.54-5.437a29.241,29.241,0,0,1,3.447-20.749c1.444-2.428,3.319-4.917,3.049-7.73-.324-3.278-3.589-5.6-6.84-6.125s-6.556.25-9.821.674a5.262,5.262,0,0,1-3.339-.331,6.67,6.67,0,0,1-1.309-1.16,14.792,14.792,0,0,0-17.228-2.408c-1.207.674-3.035-.83-4.29-1.4l-14.185-6.422c-16.3-7.373-32.674-14.779-49.915-19.447a10.483,10.483,0,0,1-3.845-1.6c-.857-.674-1.47-1.592-2.26-2.341-1.72-1.626-4.115-2.273-6.179-3.427S178.882,648.543,179.355,646.23Z" transform="translate(-94.966 -286.657)" fill="#464353"/>
        <path id="Path_16" data-name="Path 16" d="M489.433,765.446c-2.266,4.2-6.664,6.82-11.386,7.9a22.606,22.606,0,0,1-3.6.513c-5.97.371-11.865-1.282-17.619-2.914l-7.811-2.2a24.656,24.656,0,0,0-4.115-.917,28.234,28.234,0,0,0-5.693.2,100.905,100.905,0,0,1-27.656-1.241,4.875,4.875,0,0,1-2.138-.762,10.621,10.621,0,0,1-1.491-1.828c-2.125-2.557-4.411-4.047-1.9-7.42,1.45-1.956,4.142-2.934,5.268-5.18s.4-5.437-.263-7.757c-.911-3.2-3.906-4.587-4.978-7.528-.8-2.219.546-4.8,2.577-6a10.7,10.7,0,0,1,6.88-.992c2.341.31,4.634.971,6.988,1.153,6.921.553,14-3.015,20.641-1.005,1.464.445,2.847,1.154,4.331,1.545a14.4,14.4,0,0,0,8.654-.749c.971-.364,1.922-.8,2.867-1.234a23.088,23.088,0,0,1,5.767-2.084c6.482-1.113,12.492,3.373,17.383,7.75a24.577,24.577,0,0,1,4.418,4.789,24.044,24.044,0,0,1,2.7,6.968C491.045,752.684,492.523,759.712,489.433,765.446Z" transform="translate(-186.355 -317.718)" fill="#3f3d56"/>
        <path id="Path_17" data-name="Path 17" d="M515.535,765.426c-2.266,4.2-6.664,6.819-11.386,7.9a22.05,22.05,0,0,0,2.395-11.575c-.4-6.415-3.224-12.459-6.82-17.787a62.994,62.994,0,0,0-7.514-9.153c-2.145-2.159-4.782-3.872-7.089-5.848a23.088,23.088,0,0,1,5.767-2.084c6.482-1.113,12.492,3.373,17.383,7.75a24.58,24.58,0,0,1,4.418,4.789,24.043,24.043,0,0,1,2.7,6.968C517.147,752.664,518.624,759.693,515.535,765.426Z" transform="translate(-212.457 -317.699)" opacity="0.1"/>
        <path id="Path_18" data-name="Path 18" d="M156.575,473.534a6.982,6.982,0,0,0-1.5,2.395,113.227,113.227,0,0,0-9.511,38.866,3.885,3.885,0,0,1-.438,1.882,8.231,8.231,0,0,1-.992,1.073,3.723,3.723,0,0,0,.634,5.4c1.113-2.1,3.777-2.779,6.145-2.961,11.339-.9,22.415,4.378,33.787,3.98-.8-2.772-1.956-5.437-2.61-8.243-2.894-12.459,4.324-26.023-.1-38.023-.884-2.4-2.361-4.762-4.688-5.814a12.486,12.486,0,0,0-3-.8c-2.874-.519-8.594-2.739-11.373-1.848-1.025.331-1.43,1.3-2.28,1.875C159.361,472.144,157.647,472.448,156.575,473.534Z" transform="translate(-101.191 -233.899)" fill="#fff"/>
        <rect id="Rectangle_1" data-name="Rectangle 1" width="150.42" height="95.783" rx="7.97" transform="translate(79.303 264.188)" fill="#3f3d56"/>
        <circle id="Ellipse_4" data-name="Ellipse 4" cx="4.047" cy="4.047" r="4.047" transform="translate(150.128 308.032)" fill="#fff"/>
        <path id="Path_19" data-name="Path 19" d="M216.655,296.085c-2.266,1.639-3.818,3.993-5.4,6.253-2.907,4.175-6.2,8.344-10.846,10.671-1.761.884-3.771,1.551-4.938,3.089a8.324,8.324,0,0,0-1.315,3.46,68.564,68.564,0,0,0-1.389,13.221,14.694,14.694,0,0,0,1.072,6.5c.924,1.889,2.59,3.487,2.934,5.545.263,1.605-.331,3.2-.54,4.816s.155,3.521,1.646,4.29a9.976,9.976,0,0,0,2.5.587c4.486,1,5.99,6.26,6.671,10.61,1.524-.088,2.212-1.835,2.529-3.258l4.674-20.782c.506-2.253,1.349-4.863,3.6-5.653,1.5-.519,3.15-.034,4.722.1,6.172.506,11.393-4.263,17.43-5.578a22.257,22.257,0,0,1,5.875-.391c4.762.236,10.3,2.192,11.312,6.637.169.722.27,1.585.944,1.943s1.383.054,2.091,0c3.022-.3,4.8,3.1,5.673,5.875l3.17,10.118c.472,1.531,1.268,3.332,2.927,3.528,1.531.189,2.833-1.261,3.062-2.7a11.819,11.819,0,0,0-.6-4.371c-1.491-6.644.789-13.443,2.179-20.1s1.639-14.307-3.022-19.433c-1.693-1.855-3.919-3.238-5.5-5.194-1.47-1.835-2.3-4.088-3.825-5.889-4.216-4.971-15.029-8.809-21.659-9.443C235.056,289.717,222.78,291.64,216.655,296.085Z" transform="translate(-117.305 -175.68)" fill="#3f3d56"/>
        <g id="Group_1" data-name="Group 1" transform="translate(75.471 144.789)" opacity="0.1">
          <path id="Path_20" data-name="Path 20" d="M273.681,369.568c-1.659-.2-2.455-2.024-2.927-3.528q-1.585-5.066-3.17-10.118c-.87-2.786-2.651-6.185-5.673-5.875-.708.074-1.47.351-2.091,0s-.776-1.221-.944-1.943c-1.012-4.452-6.55-6.4-11.312-6.637a22.55,22.55,0,0,0-5.875.384c-6.037,1.349-11.258,6.071-17.43,5.578-1.592-.128-3.238-.614-4.722-.094-2.273.782-3.089,3.373-3.6,5.653l-4.674,20.776c-.317,1.43-1.005,3.177-2.529,3.258-.675-4.344-2.185-9.605-6.671-10.6a10.6,10.6,0,0,1-2.5-.587,2.927,2.927,0,0,1-1.3-1.45c-.121.627-.263,1.255-.344,1.882-.2,1.605.155,3.521,1.646,4.29a9.976,9.976,0,0,0,2.5.587c4.486,1,5.99,6.26,6.671,10.61,1.524-.088,2.212-1.835,2.529-3.258l4.674-20.782c.506-2.253,1.349-4.863,3.6-5.653,1.5-.519,3.15-.034,4.722.1,6.172.506,11.393-4.263,17.43-5.578a22.258,22.258,0,0,1,5.875-.391c4.762.236,10.3,2.192,11.312,6.637.169.722.27,1.585.944,1.943s1.383.054,2.091,0c3.022-.3,4.8,3.1,5.673,5.875q1.578,5.066,3.17,10.118c.472,1.531,1.268,3.332,2.927,3.528,1.531.189,2.833-1.261,3.062-2.7a9.159,9.159,0,0,0-.4-3.582,2.786,2.786,0,0,1-2.658,1.558Z" transform="translate(-194.438 -337.089)"/>
          <path id="Path_21" data-name="Path 21" d="M196.787,359.482c-.344-2.057-2.024-3.656-2.934-5.545a11.1,11.1,0,0,1-1-4.047c0,.755-.067,1.511-.074,2.273a14.694,14.694,0,0,0,1.073,6.5c.749,1.531,1.983,2.88,2.6,4.438a10.158,10.158,0,0,0,.331-3.622Z" transform="translate(-192.78 -339.846)"/>
          <path id="Path_22" data-name="Path 22" d="M315.856,340.282c-1.228,5.882-3.143,11.872-2.55,17.767.384-4.351,1.653-8.728,2.55-13.045a34.4,34.4,0,0,0,.782-10,41.245,41.245,0,0,1-.782,5.282Z" transform="translate(-231.971 -335)"/>
        </g>
        <g id="Group_3" data-name="Group 3" transform="translate(0 184.601)" opacity="0.1">
          <path id="Path_26" data-name="Path 26" d="M139.137,399.882S88.7,378.675,82.092,416.941c0,0-3.447,5.963,1.349,10.887,0,0,1.032-2.644,5.9.088a25.073,25.073,0,0,0,5.5,2.239,12.385,12.385,0,0,0,7.838-.418h0s16.587-.9,30.536-22.6c0,0,5.983-3.7,6.28-5.086l-10,.675s.769,7.319-3.373,11.71c0,0,3.669-11.359,1.909-11.676-.357-.067-5.282.58-5.282.58s1.275,12.728-5.4,19.312c0,0,6.192-12.944,3.5-19.082l-7.379,1.423s2.024,13.389-5.275,21.173c0,0,6-13.76,3.683-20.749l-7.062,2.374s1.7,13.093-4.4,19.561c0,0,5.329-16.6,2.82-18.887,0,0-6.354,2.577-7.71,4.047,0,0,1.005,9.443-2.873,12.85,0,0,2.381-11.467,1.2-11.939,0,0-7.379,5.558-9.632,10.354,0,0,2.806-7.325,8.708-11.467,0,0-4.958-.836-8.769,1.234,0,0,2.55-4.863,10.556-2.556,0,0,5.929-4.108,7.116-4.047,0,0-7.575-3.373-13.045-2.954,0,0,5.868-3.373,14.894,2.26l7.049-2.543s-9.781-5.012-14.678-4.992c0,0,6.516-2.523,16.506,4.492l7.217-1.47s-8.094-4.958-13.551-6.111c0,0,6.543-1.039,15.636,5.767l4.931-.411s-5.97-3.521-7.777-4.378-1.727-1.41-1.727-1.41a23.534,23.534,0,0,1,11.561,5.518S139.1,400.509,139.137,399.882Z" transform="translate(-80.893 -394.021)" fill="#6c63ff"/>
        </g>
        <g id="Group_4" data-name="Group 4" transform="translate(7.391 125.097)" opacity="0.1">
          <path id="Path_27" data-name="Path 27" d="M140.841,333.154s-17.862-41.328-43.595-22.374c0,0-5.437,1.578-5.4,7.217,0,0,2.118-.985,3.46,3.42a20.3,20.3,0,0,0,2.024,4.459,10.118,10.118,0,0,0,4.89,4.216h0s10.368,8.917,31.028,3.973c0,0,5.666,1.207,6.631.56l-6.314-5.309s-3.717,4.789-8.695,5.019c0,0,8.654-4.654,7.791-5.848-.175-.243-3.474-2.658-3.474-2.658s-6.489,8.283-14.165,8.411c0,0,11.056-4.169,12.951-9.342l-5.194-3.373s-6.55,9.113-15.319,9.585c0,0,11.406-4.755,14.01-10.233l-5.551-2.61s-6.449,8.769-13.74,9.1c0,0,12.627-6.826,12.432-9.612,0,0-5.241-2.091-6.907-1.97,0,0-4.769,6.172-9.025,6,0,0,7.953-5.457,7.521-6.408,0,0-7.555-.9-11.622.675,0,0,5.841-2.752,11.7-1.848,0,0-2.469-3.325-5.9-4.25,0,0,4.29-1.437,7.73,4.486,0,0,5.855.944,6.543,1.646,0,0-2.57-6.334-6.071-9.187,0,0,5.4,1.349,7.555,9.828l5.639,2.5s-2.954-8.553-5.882-11.325c0,0,5.309,2.212,7.251,12.074l5.126,3.231s-1.983-7.555-4.567-11.352c0,0,4.479,3.116,6,12.337l3.17,2.563s-1.545-5.491-2.132-7.029-.223-1.821-.223-1.821a19.325,19.325,0,0,1,3.7,9.9S140.457,333.5,140.841,333.154Z" transform="translate(-91.85 -305.806)" fill="#6c63ff"/>
        </g>
      </g>
    </g>
    <g id="Group_20" data-name="Group 20" transform="translate(1042.156 1894.66)">
      <g id="Group_6" data-name="Group 6" transform="translate(0 0)">
        <g id="undraw_web_search_eetr" transform="translate(0)">
          <path id="Path_28" data-name="Path 28" d="M0,0H314.885V201.667H0Z" transform="translate(0.134 0.179)" fill="#e6e6e6"/>
          <rect id="Rectangle_6" data-name="Rectangle 6" width="296.877" height="164.442" transform="translate(9.139 25.473)" fill="#fff"/>
          <rect id="Rectangle_7" data-name="Rectangle 7" width="314.885" height="13.377" fill="#3f3d56"/>
          <circle id="Ellipse_14" data-name="Ellipse 14" cx="2.479" cy="2.479" r="2.479" transform="translate(7.462 4.36)" fill="#fff"/>
          <circle id="Ellipse_15" data-name="Ellipse 15" cx="2.479" cy="2.479" r="2.479" transform="translate(16.873 4.36)" fill="#fff"/>
          <circle id="Ellipse_16" data-name="Ellipse 16" cx="2.479" cy="2.479" r="2.479" transform="translate(26.284 4.36)" fill="#fff"/>
          <rect id="Rectangle_8" data-name="Rectangle 8" width="76.284" height="130.318" transform="translate(36.114 42.535)" fill="#e6e6e6"/>
          <rect id="Rectangle_9" data-name="Rectangle 9" width="63.57" height="35.871" transform="translate(125.565 42.535)" fill="#e6e6e6"/>
          <rect id="Rectangle_10" data-name="Rectangle 10" width="63.57" height="38.596" transform="translate(125.565 88.396)" fill="#e6e6e6"/>
          <rect id="Rectangle_11" data-name="Rectangle 11" width="63.57" height="35.871" transform="translate(125.565 136.981)" fill="#e6e6e6"/>
          <rect id="Rectangle_12" data-name="Rectangle 12" width="76.284" height="56.792" transform="translate(202.757 42.535)" fill="#e6e6e6"/>
          <rect id="Rectangle_13" data-name="Rectangle 13" width="76.284" height="56.792" transform="translate(202.757 116.061)" fill="#e6e6e6"/>
        </g>
        <g id="undraw_web_search_eetr-2" data-name="undraw_web_search_eetr" transform="translate(11.145 15.768)">
          <path id="Path_28-2" data-name="Path 28" d="M0,0H314.885V201.667H0Z" transform="translate(0.134 0.179)" fill="#e6e6e6"/>
          <rect id="Rectangle_6-2" data-name="Rectangle 6" width="296.877" height="164.442" transform="translate(9.139 25.473)" fill="#fff"/>
          <rect id="Rectangle_7-2" data-name="Rectangle 7" width="314.885" height="13.377" fill="#3f3d56"/>
          <circle id="Ellipse_14-2" data-name="Ellipse 14" cx="2.479" cy="2.479" r="2.479" transform="translate(7.462 4.36)" fill="#fff"/>
          <circle id="Ellipse_15-2" data-name="Ellipse 15" cx="2.479" cy="2.479" r="2.479" transform="translate(16.873 4.36)" fill="#fff"/>
          <circle id="Ellipse_16-2" data-name="Ellipse 16" cx="2.479" cy="2.479" r="2.479" transform="translate(26.284 4.36)" fill="#fff"/>
          <rect id="Rectangle_8-2" data-name="Rectangle 8" width="76.284" height="130.318" transform="translate(36.114 42.535)" fill="#e6e6e6"/>
          <rect id="Rectangle_9-2" data-name="Rectangle 9" width="63.57" height="35.871" transform="translate(125.565 42.535)" fill="#e6e6e6"/>
          <rect id="Rectangle_10-2" data-name="Rectangle 10" width="63.57" height="38.596" transform="translate(125.565 88.396)" fill="#e6e6e6"/>
          <rect id="Rectangle_11-2" data-name="Rectangle 11" width="63.57" height="35.871" transform="translate(125.565 136.981)" fill="#e6e6e6"/>
          <rect id="Rectangle_12-2" data-name="Rectangle 12" width="76.284" height="56.792" transform="translate(202.757 42.535)" fill="#e6e6e6"/>
          <rect id="Rectangle_13-2" data-name="Rectangle 13" width="76.284" height="56.792" transform="translate(202.757 116.061)" fill="#e6e6e6"/>
        </g>
        <g id="undraw_web_search_eetr-3" data-name="undraw_web_search_eetr" transform="translate(23.144 31.455)">
          <path id="Path_28-3" data-name="Path 28" d="M0,0H314.885V201.667H0Z" transform="translate(0.134 0.179)" fill="#e6e6e6"/>
          <rect id="Rectangle_6-3" data-name="Rectangle 6" width="296.877" height="164.442" transform="translate(9.139 25.473)" fill="#fff"/>
          <rect id="Rectangle_7-3" data-name="Rectangle 7" width="314.885" height="13.377" fill="#3f3d56"/>
          <circle id="Ellipse_14-3" data-name="Ellipse 14" cx="2.479" cy="2.479" r="2.479" transform="translate(7.462 4.36)" fill="#fff"/>
          <circle id="Ellipse_15-3" data-name="Ellipse 15" cx="2.479" cy="2.479" r="2.479" transform="translate(16.873 4.36)" fill="#fff"/>
          <circle id="Ellipse_16-3" data-name="Ellipse 16" cx="2.479" cy="2.479" r="2.479" transform="translate(26.284 4.36)" fill="#fff"/>
          <g id="Group_17" data-name="Group 17" transform="translate(36.114 42.535)">
            <g id="Group_16" data-name="Group 16">
              <g id="Group_15" data-name="Group 15">
                <rect id="Rectangle_8-3" data-name="Rectangle 8" width="76.284" height="130.318" fill="#3f3d56"/>
              </g>
            </g>
          </g>
          <rect id="Rectangle_9-3" data-name="Rectangle 9" width="63.57" height="35.871" transform="translate(125.565 42.535)" fill="#3f3d56"/>
          <rect id="Rectangle_10-3" data-name="Rectangle 10" width="63.57" height="38.596" transform="translate(125.565 88.396)" fill="#3f3d56"/>
          <rect id="Rectangle_11-3" data-name="Rectangle 11" width="63.57" height="35.871" transform="translate(125.565 136.981)" fill="#3f3d56"/>
          <rect id="Rectangle_12-3" data-name="Rectangle 12" width="76.284" height="56.792" transform="translate(202.757 42.535)" fill="#3f3d56"/>
          <rect id="Rectangle_13-3" data-name="Rectangle 13" width="76.284" height="56.792" transform="translate(202.757 116.061)" fill="#3f3d56"/>
        </g>
      </g>
      <g id="Group_19" data-name="Group 19" transform="translate(62.738 84.216)">
        <g id="Group_13" data-name="Group 13" transform="translate(0 82.293)">
          <g id="Group_8" data-name="Group 8" transform="translate(0 0)">
            <path id="Path_74" data-name="Path 74" d="M423,626.7h-9.878c-.066,0-.12-.3-.12-.67s.054-.67.12-.67H423c.066,0,.12.3.12.67S423.062,626.7,423,626.7Z" transform="translate(-358.361 -611.193)" fill="#f2f2f2"/>
            <path id="Path_70" data-name="Path 70" d="M459.655,626.7h-46.1a.681.681,0,0,1,0-1.341h46.1a.681.681,0,0,1,0,1.341Z" transform="translate(-394.785 -618.613)" fill="#f2f2f2"/>
            <path id="Path_71" data-name="Path 71" d="M426.328,626.7H413.157c-.088,0-.16-.3-.16-.67s.072-.67.16-.67h13.171c.088,0,.16.3.16.67S426.417,626.7,426.328,626.7Z" transform="translate(-367.804 -625.358)" fill="#f2f2f2"/>
            <path id="Path_75" data-name="Path 75" d="M446.324,626.7H413.4c-.221,0-.4-.3-.4-.67s.179-.67.4-.67h32.927c.221,0,.4.3.4.67S446.545,626.7,446.324,626.7Z" transform="translate(-412.998 -604.448)" fill="#f2f2f2"/>
            <path id="Path_76" data-name="Path 76" d="M446.324,626.7H413.4c-.221,0-.4-.3-.4-.67s.179-.67.4-.67h32.927c.221,0,.4.3.4.67S446.545,626.7,446.324,626.7Z" transform="translate(-376.573 -604.448)" fill="#f2f2f2"/>
            <path id="Path_68" data-name="Path 68" d="M452.99,626.7H413.477c-.265,0-.479-.3-.479-.67s.215-.67.479-.67H452.99c.265,0,.48.3.48.67S453.255,626.7,452.99,626.7Z" transform="translate(-412.998 -625.358)" fill="#f2f2f2"/>
            <path id="Path_69" data-name="Path 69" d="M426.328,626.7H413.157c-.088,0-.16-.3-.16-.67s.072-.67.16-.67h13.171c.088,0,.16.3.16.67S426.417,626.7,426.328,626.7Z" transform="translate(-412.998 -618.613)" fill="#f2f2f2"/>
            <path id="Path_72" data-name="Path 72" d="M446.324,626.7H413.4c-.221,0-.4-.3-.4-.67s.179-.67.4-.67h32.927c.221,0,.4.3.4.67S446.545,626.7,446.324,626.7Z" transform="translate(-412.998 -611.193)" fill="#f2f2f2"/>
            <path id="Path_73" data-name="Path 73" d="M423,626.7h-9.878c-.066,0-.12-.3-.12-.67s.054-.67.12-.67H423c.066,0,.12.3.12.67S423.062,626.7,423,626.7Z" transform="translate(-373.875 -611.193)" fill="#f2f2f2"/>
            <path id="Path_77" data-name="Path 77" d="M452.99,626.7H413.477c-.265,0-.479-.3-.479-.67s.215-.67.479-.67H452.99c.265,0,.48.3.48.67S453.255,626.7,452.99,626.7Z" transform="translate(-412.998 -598.377)" fill="#f2f2f2"/>
          </g>
        </g>
        <g id="Group_12" data-name="Group 12">
          <g id="Group_8-2" data-name="Group 8" transform="translate(0 0)">
            <path id="Path_74-2" data-name="Path 74" d="M423,626.7h-9.878c-.066,0-.12-.3-.12-.67s.054-.67.12-.67H423c.066,0,.12.3.12.67S423.062,626.7,423,626.7Z" transform="translate(-358.361 -611.193)" fill="#f2f2f2"/>
            <path id="Path_70-2" data-name="Path 70" d="M459.655,626.7h-46.1a.681.681,0,0,1,0-1.341h46.1a.681.681,0,0,1,0,1.341Z" transform="translate(-394.785 -618.613)" fill="#f2f2f2"/>
            <path id="Path_71-2" data-name="Path 71" d="M426.328,626.7H413.157c-.088,0-.16-.3-.16-.67s.072-.67.16-.67h13.171c.088,0,.16.3.16.67S426.417,626.7,426.328,626.7Z" transform="translate(-367.804 -625.358)" fill="#f2f2f2"/>
            <path id="Path_75-2" data-name="Path 75" d="M446.324,626.7H413.4c-.221,0-.4-.3-.4-.67s.179-.67.4-.67h32.927c.221,0,.4.3.4.67S446.545,626.7,446.324,626.7Z" transform="translate(-412.998 -604.448)" fill="#f2f2f2"/>
            <path id="Path_76-2" data-name="Path 76" d="M446.324,626.7H413.4c-.221,0-.4-.3-.4-.67s.179-.67.4-.67h32.927c.221,0,.4.3.4.67S446.545,626.7,446.324,626.7Z" transform="translate(-376.573 -604.448)" fill="#f2f2f2"/>
            <path id="Path_68-2" data-name="Path 68" d="M452.99,626.7H413.477c-.265,0-.479-.3-.479-.67s.215-.67.479-.67H452.99c.265,0,.48.3.48.67S453.255,626.7,452.99,626.7Z" transform="translate(-412.998 -625.358)" fill="#f2f2f2"/>
            <path id="Path_69-2" data-name="Path 69" d="M426.328,626.7H413.157c-.088,0-.16-.3-.16-.67s.072-.67.16-.67h13.171c.088,0,.16.3.16.67S426.417,626.7,426.328,626.7Z" transform="translate(-412.998 -618.613)" fill="#f2f2f2"/>
            <path id="Path_72-2" data-name="Path 72" d="M446.324,626.7H413.4c-.221,0-.4-.3-.4-.67s.179-.67.4-.67h32.927c.221,0,.4.3.4.67S446.545,626.7,446.324,626.7Z" transform="translate(-412.998 -611.193)" fill="#f2f2f2"/>
            <path id="Path_73-2" data-name="Path 73" d="M423,626.7h-9.878c-.066,0-.12-.3-.12-.67s.054-.67.12-.67H423c.066,0,.12.3.12.67S423.062,626.7,423,626.7Z" transform="translate(-373.875 -611.193)" fill="#f2f2f2"/>
            <path id="Path_77-2" data-name="Path 77" d="M452.99,626.7H413.477c-.265,0-.479-.3-.479-.67s.215-.67.479-.67H452.99c.265,0,.48.3.48.67S453.255,626.7,452.99,626.7Z" transform="translate(-412.998 -598.377)" fill="#f2f2f2"/>
          </g>
          <path id="Path_81" data-name="Path 81" d="M423,626.7h-9.878c-.066,0-.12-.3-.12-.67s.054-.67.12-.67H423c.066,0,.12.3.12.67S423.062,626.7,423,626.7Z" transform="translate(-366.455 -599.051)" fill="#f2f2f2"/>
        </g>
        <g id="Group_18" data-name="Group 18" transform="translate(8.3 41.792)">
          <path id="Path_79" data-name="Path 79" d="M463.449,401.13l-16.435,16.863,16.435,16.863,3.7-3.842L454.718,418.1l12.532-13.021Z" transform="translate(-447.014 -401.13)" fill="#fff"/>
          <path id="Path_80" data-name="Path 80" d="M612.468,401.13,628.9,417.993l-16.435,16.863-3.7-3.842L621.2,418.1l-12.532-13.021Z" transform="translate(-576.725 -401.13)" fill="#fff"/>
        </g>
      </g>
      <g id="Group_45" data-name="Group 45" transform="translate(153.125 82.193)">
        <g id="Group_8-3" data-name="Group 8" transform="translate(0 0)">
          <path id="Path_74-3" data-name="Path 74" d="M420.957,626.425h-7.864c-.053,0-.1-.239-.1-.534s.043-.534.1-.534h7.864c.053,0,.1.239.1.534S421.009,626.425,420.957,626.425Z" transform="translate(-369.503 -614.082)" fill="#f2f2f2"/>
          <path id="Path_70-3" data-name="Path 70" d="M450.14,626.425h-36.7a.542.542,0,0,1,0-1.067h36.7a.542.542,0,0,1,0,1.067Z" transform="translate(-398.499 -619.988)" fill="#f2f2f2"/>
          <path id="Path_71-3" data-name="Path 71" d="M423.61,626.425H413.125c-.07,0-.127-.239-.127-.534s.057-.534.127-.534H423.61c.07,0,.127.239.127.534S423.68,626.425,423.61,626.425Z" transform="translate(-377.021 -625.358)" fill="#f2f2f2"/>
          <path id="Path_75-3" data-name="Path 75" d="M439.528,626.425H413.316c-.176,0-.318-.239-.318-.534s.142-.534.318-.534h26.212c.176,0,.318.239.318.534S439.7,626.425,439.528,626.425Z" transform="translate(-412.998 -608.712)" fill="#f2f2f2"/>
          <path id="Path_76-3" data-name="Path 76" d="M439.528,626.425H413.316c-.176,0-.318-.239-.318-.534s.142-.534.318-.534h26.212c.176,0,.318.239.318.534S439.7,626.425,439.528,626.425Z" transform="translate(-384.001 -608.712)" fill="#f2f2f2"/>
          <path id="Path_68-3" data-name="Path 68" d="M444.834,626.425H413.379c-.211,0-.382-.239-.382-.534s.171-.534.382-.534h31.455c.211,0,.382.239.382.534S445.045,626.425,444.834,626.425Z" transform="translate(-412.998 -625.358)" fill="#f2f2f2"/>
          <path id="Path_69-3" data-name="Path 69" d="M423.61,626.425H413.125c-.07,0-.127-.239-.127-.534s.057-.534.127-.534H423.61c.07,0,.127.239.127.534S423.68,626.425,423.61,626.425Z" transform="translate(-412.998 -619.988)" fill="#f2f2f2"/>
          <path id="Path_72-3" data-name="Path 72" d="M439.528,626.425H413.316c-.176,0-.318-.239-.318-.534s.142-.534.318-.534h26.212c.176,0,.318.239.318.534S439.7,626.425,439.528,626.425Z" transform="translate(-412.998 -614.082)" fill="#f2f2f2"/>
          <path id="Path_73-3" data-name="Path 73" d="M420.957,626.425h-7.864c-.053,0-.1-.239-.1-.534s.043-.534.1-.534h7.864c.053,0,.1.239.1.534S421.009,626.425,420.957,626.425Z" transform="translate(-381.853 -614.082)" fill="#f2f2f2"/>
          <path id="Path_77-3" data-name="Path 77" d="M444.834,626.425H413.379c-.211,0-.382-.239-.382-.534s.171-.534.382-.534h31.455c.211,0,.382.239.382.534S445.045,626.425,444.834,626.425Z" transform="translate(-412.998 -603.879)" fill="#f2f2f2"/>
        </g>
        <path id="Path_81-2" data-name="Path 81" d="M420.957,626.425h-7.864c-.053,0-.1-.239-.1-.534s.043-.534.1-.534h7.864c.053,0,.1.239.1.534S421.009,626.425,420.957,626.425Z" transform="translate(-375.947 -604.416)" fill="#f2f2f2"/>
      </g>
      <g id="Group_46" data-name="Group 46" transform="translate(153.125 128.735)">
        <g id="Group_8-4" data-name="Group 8" transform="translate(0 0)">
          <path id="Path_74-4" data-name="Path 74" d="M420.957,626.425h-7.864c-.053,0-.1-.239-.1-.534s.043-.534.1-.534h7.864c.053,0,.1.239.1.534S421.009,626.425,420.957,626.425Z" transform="translate(-369.503 -614.082)" fill="#f2f2f2"/>
          <path id="Path_70-4" data-name="Path 70" d="M450.14,626.425h-36.7a.542.542,0,0,1,0-1.067h36.7a.542.542,0,0,1,0,1.067Z" transform="translate(-398.499 -619.988)" fill="#f2f2f2"/>
          <path id="Path_71-4" data-name="Path 71" d="M423.61,626.425H413.125c-.07,0-.127-.239-.127-.534s.057-.534.127-.534H423.61c.07,0,.127.239.127.534S423.68,626.425,423.61,626.425Z" transform="translate(-377.021 -625.358)" fill="#f2f2f2"/>
          <path id="Path_75-4" data-name="Path 75" d="M439.528,626.425H413.316c-.176,0-.318-.239-.318-.534s.142-.534.318-.534h26.212c.176,0,.318.239.318.534S439.7,626.425,439.528,626.425Z" transform="translate(-412.998 -608.712)" fill="#f2f2f2"/>
          <path id="Path_76-4" data-name="Path 76" d="M439.528,626.425H413.316c-.176,0-.318-.239-.318-.534s.142-.534.318-.534h26.212c.176,0,.318.239.318.534S439.7,626.425,439.528,626.425Z" transform="translate(-384.001 -608.712)" fill="#f2f2f2"/>
          <path id="Path_68-4" data-name="Path 68" d="M444.834,626.425H413.379c-.211,0-.382-.239-.382-.534s.171-.534.382-.534h31.455c.211,0,.382.239.382.534S445.045,626.425,444.834,626.425Z" transform="translate(-412.998 -625.358)" fill="#f2f2f2"/>
          <path id="Path_69-4" data-name="Path 69" d="M423.61,626.425H413.125c-.07,0-.127-.239-.127-.534s.057-.534.127-.534H423.61c.07,0,.127.239.127.534S423.68,626.425,423.61,626.425Z" transform="translate(-412.998 -619.988)" fill="#f2f2f2"/>
          <path id="Path_72-4" data-name="Path 72" d="M439.528,626.425H413.316c-.176,0-.318-.239-.318-.534s.142-.534.318-.534h26.212c.176,0,.318.239.318.534S439.7,626.425,439.528,626.425Z" transform="translate(-412.998 -614.082)" fill="#f2f2f2"/>
          <path id="Path_73-4" data-name="Path 73" d="M420.957,626.425h-7.864c-.053,0-.1-.239-.1-.534s.043-.534.1-.534h7.864c.053,0,.1.239.1.534S421.009,626.425,420.957,626.425Z" transform="translate(-381.853 -614.082)" fill="#f2f2f2"/>
          <path id="Path_77-4" data-name="Path 77" d="M444.834,626.425H413.379c-.211,0-.382-.239-.382-.534s.171-.534.382-.534h31.455c.211,0,.382.239.382.534S445.045,626.425,444.834,626.425Z" transform="translate(-412.998 -603.879)" fill="#f2f2f2"/>
        </g>
        <path id="Path_81-3" data-name="Path 81" d="M420.957,626.425h-7.864c-.053,0-.1-.239-.1-.534s.043-.534.1-.534h7.864c.053,0,.1.239.1.534S421.009,626.425,420.957,626.425Z" transform="translate(-375.947 -604.416)" fill="#f2f2f2"/>
      </g>
      <g id="Group_47" data-name="Group 47" transform="translate(153.125 175.278)">
        <g id="Group_8-5" data-name="Group 8" transform="translate(0 0)">
          <path id="Path_74-5" data-name="Path 74" d="M420.957,626.425h-7.864c-.053,0-.1-.239-.1-.534s.043-.534.1-.534h7.864c.053,0,.1.239.1.534S421.009,626.425,420.957,626.425Z" transform="translate(-369.503 -614.082)" fill="#f2f2f2"/>
          <path id="Path_70-5" data-name="Path 70" d="M450.14,626.425h-36.7a.542.542,0,0,1,0-1.067h36.7a.542.542,0,0,1,0,1.067Z" transform="translate(-398.499 -619.988)" fill="#f2f2f2"/>
          <path id="Path_71-5" data-name="Path 71" d="M423.61,626.425H413.125c-.07,0-.127-.239-.127-.534s.057-.534.127-.534H423.61c.07,0,.127.239.127.534S423.68,626.425,423.61,626.425Z" transform="translate(-377.021 -625.358)" fill="#f2f2f2"/>
          <path id="Path_75-5" data-name="Path 75" d="M439.528,626.425H413.316c-.176,0-.318-.239-.318-.534s.142-.534.318-.534h26.212c.176,0,.318.239.318.534S439.7,626.425,439.528,626.425Z" transform="translate(-412.998 -608.712)" fill="#f2f2f2"/>
          <path id="Path_76-5" data-name="Path 76" d="M439.528,626.425H413.316c-.176,0-.318-.239-.318-.534s.142-.534.318-.534h26.212c.176,0,.318.239.318.534S439.7,626.425,439.528,626.425Z" transform="translate(-384.001 -608.712)" fill="#f2f2f2"/>
          <path id="Path_68-5" data-name="Path 68" d="M444.834,626.425H413.379c-.211,0-.382-.239-.382-.534s.171-.534.382-.534h31.455c.211,0,.382.239.382.534S445.045,626.425,444.834,626.425Z" transform="translate(-412.998 -625.358)" fill="#f2f2f2"/>
          <path id="Path_69-5" data-name="Path 69" d="M423.61,626.425H413.125c-.07,0-.127-.239-.127-.534s.057-.534.127-.534H423.61c.07,0,.127.239.127.534S423.68,626.425,423.61,626.425Z" transform="translate(-412.998 -619.988)" fill="#f2f2f2"/>
          <path id="Path_72-5" data-name="Path 72" d="M439.528,626.425H413.316c-.176,0-.318-.239-.318-.534s.142-.534.318-.534h26.212c.176,0,.318.239.318.534S439.7,626.425,439.528,626.425Z" transform="translate(-412.998 -614.082)" fill="#f2f2f2"/>
          <path id="Path_73-5" data-name="Path 73" d="M420.957,626.425h-7.864c-.053,0-.1-.239-.1-.534s.043-.534.1-.534h7.864c.053,0,.1.239.1.534S421.009,626.425,420.957,626.425Z" transform="translate(-381.853 -614.082)" fill="#f2f2f2"/>
          <path id="Path_77-5" data-name="Path 77" d="M444.834,626.425H413.379c-.211,0-.382-.239-.382-.534s.171-.534.382-.534h31.455c.211,0,.382.239.382.534S445.045,626.425,444.834,626.425Z" transform="translate(-412.998 -603.879)" fill="#f2f2f2"/>
        </g>
        <path id="Path_81-4" data-name="Path 81" d="M420.957,626.425h-7.864c-.053,0-.1-.239-.1-.534s.043-.534.1-.534h7.864c.053,0,.1.239.1.534S421.009,626.425,420.957,626.425Z" transform="translate(-375.947 -604.416)" fill="#f2f2f2"/>
      </g>
      <g id="Group_48" data-name="Group 48" transform="translate(229.347 82.193)">
        <g id="Group_8-6" data-name="Group 8" transform="translate(0 0)">
          <path id="Path_74-6" data-name="Path 74" d="M422.661,626.654h-9.548c-.064,0-.116-.29-.116-.648s.052-.648.116-.648h9.548c.064,0,.116.29.116.648S422.725,626.654,422.661,626.654Z" transform="translate(-360.187 -604.804)" fill="#f2f2f2"/>
          <path id="Path_70-6" data-name="Path 70" d="M458.1,626.654H413.538a.659.659,0,0,1,0-1.3H458.1a.659.659,0,0,1,0,1.3Z" transform="translate(-395.394 -615.57)" fill="#f2f2f2"/>
          <path id="Path_71-6" data-name="Path 71" d="M425.883,626.654H413.152c-.085,0-.154-.29-.154-.648s.069-.648.154-.648h12.731c.085,0,.155.29.155.648S425.968,626.654,425.883,626.654Z" transform="translate(-369.315 -625.358)" fill="#f2f2f2"/>
          <path id="Path_75-6" data-name="Path 75" d="M445.211,626.654H413.384c-.213,0-.386-.29-.386-.648s.173-.648.386-.648h31.827c.213,0,.386.29.386.648S445.424,626.654,445.211,626.654Z" transform="translate(-412.998 -595.016)" fill="#f2f2f2"/>
          <path id="Path_76-6" data-name="Path 76" d="M445.211,626.654H413.384c-.213,0-.386-.29-.386-.648s.173-.648.386-.648h31.827c.213,0,.386.29.386.648S445.424,626.654,445.211,626.654Z" transform="translate(-377.79 -595.016)" fill="#f2f2f2"/>
          <path id="Path_68-6" data-name="Path 68" d="M451.653,626.654H413.461c-.256,0-.464-.29-.464-.648s.208-.648.464-.648h38.192c.256,0,.464.29.464.648S451.909,626.654,451.653,626.654Z" transform="translate(-412.998 -625.358)" fill="#f2f2f2"/>
          <path id="Path_69-6" data-name="Path 69" d="M425.883,626.654H413.152c-.085,0-.154-.29-.154-.648s.069-.648.154-.648h12.731c.085,0,.155.29.155.648S425.968,626.654,425.883,626.654Z" transform="translate(-412.998 -615.57)" fill="#f2f2f2"/>
          <path id="Path_72-6" data-name="Path 72" d="M445.211,626.654H413.384c-.213,0-.386-.29-.386-.648s.173-.648.386-.648h31.827c.213,0,.386.29.386.648S445.424,626.654,445.211,626.654Z" transform="translate(-412.998 -604.804)" fill="#f2f2f2"/>
          <path id="Path_73-6" data-name="Path 73" d="M422.661,626.654h-9.548c-.064,0-.116-.29-.116-.648s.052-.648.116-.648h9.548c.064,0,.116.29.116.648S422.725,626.654,422.661,626.654Z" transform="translate(-375.182 -604.804)" fill="#f2f2f2"/>
          <path id="Path_77-6" data-name="Path 77" d="M451.653,626.654H413.461c-.256,0-.463-.29-.463-.648s.208-.648.463-.648h38.192c.256,0,.464.29.464.648S451.909,626.654,451.653,626.654Z" transform="translate(-412.998 -586.207)" fill="#f2f2f2"/>
        </g>
        <path id="Path_81-5" data-name="Path 81" d="M422.661,626.654h-9.548c-.064,0-.116-.29-.116-.648s.052-.648.116-.648h9.548c.064,0,.116.29.116.648S422.725,626.654,422.661,626.654Z" transform="translate(-368.011 -586.859)" fill="#f2f2f2"/>
      </g>
      <g id="Group_49" data-name="Group 49" transform="translate(229.347 155.717)">
        <g id="Group_8-7" data-name="Group 8" transform="translate(0 0)">
          <path id="Path_74-7" data-name="Path 74" d="M422.661,626.654h-9.548c-.064,0-.116-.29-.116-.648s.052-.648.116-.648h9.548c.064,0,.116.29.116.648S422.725,626.654,422.661,626.654Z" transform="translate(-360.187 -604.804)" fill="#f2f2f2"/>
          <path id="Path_70-7" data-name="Path 70" d="M458.1,626.654H413.538a.659.659,0,0,1,0-1.3H458.1a.659.659,0,0,1,0,1.3Z" transform="translate(-395.394 -615.57)" fill="#f2f2f2"/>
          <path id="Path_71-7" data-name="Path 71" d="M425.883,626.654H413.152c-.085,0-.154-.29-.154-.648s.069-.648.154-.648h12.731c.085,0,.155.29.155.648S425.968,626.654,425.883,626.654Z" transform="translate(-369.315 -625.358)" fill="#f2f2f2"/>
          <path id="Path_75-7" data-name="Path 75" d="M445.211,626.654H413.384c-.213,0-.386-.29-.386-.648s.173-.648.386-.648h31.827c.213,0,.386.29.386.648S445.424,626.654,445.211,626.654Z" transform="translate(-412.998 -595.016)" fill="#f2f2f2"/>
          <path id="Path_76-7" data-name="Path 76" d="M445.211,626.654H413.384c-.213,0-.386-.29-.386-.648s.173-.648.386-.648h31.827c.213,0,.386.29.386.648S445.424,626.654,445.211,626.654Z" transform="translate(-377.79 -595.016)" fill="#f2f2f2"/>
          <path id="Path_68-7" data-name="Path 68" d="M451.653,626.654H413.461c-.256,0-.464-.29-.464-.648s.208-.648.464-.648h38.192c.256,0,.464.29.464.648S451.909,626.654,451.653,626.654Z" transform="translate(-412.998 -625.358)" fill="#f2f2f2"/>
          <path id="Path_69-7" data-name="Path 69" d="M425.883,626.654H413.152c-.085,0-.154-.29-.154-.648s.069-.648.154-.648h12.731c.085,0,.155.29.155.648S425.968,626.654,425.883,626.654Z" transform="translate(-412.998 -615.57)" fill="#f2f2f2"/>
          <path id="Path_72-7" data-name="Path 72" d="M445.211,626.654H413.384c-.213,0-.386-.29-.386-.648s.173-.648.386-.648h31.827c.213,0,.386.29.386.648S445.424,626.654,445.211,626.654Z" transform="translate(-412.998 -604.804)" fill="#f2f2f2"/>
          <path id="Path_73-7" data-name="Path 73" d="M422.661,626.654h-9.548c-.064,0-.116-.29-.116-.648s.052-.648.116-.648h9.548c.064,0,.116.29.116.648S422.725,626.654,422.661,626.654Z" transform="translate(-375.182 -604.804)" fill="#f2f2f2"/>
          <path id="Path_77-7" data-name="Path 77" d="M451.653,626.654H413.461c-.256,0-.463-.29-.463-.648s.208-.648.463-.648h38.192c.256,0,.464.29.464.648S451.909,626.654,451.653,626.654Z" transform="translate(-412.998 -586.207)" fill="#f2f2f2"/>
        </g>
        <path id="Path_81-6" data-name="Path 81" d="M422.661,626.654h-9.548c-.064,0-.116-.29-.116-.648s.052-.648.116-.648h9.548c.064,0,.116.29.116.648S422.725,626.654,422.661,626.654Z" transform="translate(-368.011 -586.859)" fill="#f2f2f2"/>
      </g>
    </g>
  </g>
</svg>
