<svg xmlns="http://www.w3.org/2000/svg" width="346.442" height="298.983" viewBox="0 0 346.442 298.983">
  <g id="undraw_dev_productivity_umsq" transform="translate(0 0)">
    <circle id="Ellipse_17" data-name="Ellipse 17" cx="31.9" cy="31.9" r="31.9" transform="translate(157.202 19.464)" fill="#fbbebe"/>
    <path id="Path_82" data-name="Path 82" d="M576.31,260.562s6.01,45.307-3.236,50.392,55.015,5.548,55.015,5.548-14.332-39.3-7.859-51.317Z" transform="translate(-411.018 -193.248)" fill="#fbbebe"/>
    <path id="Path_83" data-name="Path 83" d="M619.177,358.9l-5.344,24.336-11.3,51.487-.338,2.82-3.9,32.643L595.7,491.876l-1.74,14.567c-10.576,5.435-18.241,9.188-18.241,9.188s-.659-3.305-1.722-7.535c-7.422,2.225-21.156,5.917-32.8,6.654,4.238,4.724,6.186,9.162,3.544,12.437-7.973,9.873-40.89-10.81-52.4-18.523a31.166,31.166,0,0,0-.3,5.579l-8.81-6.776.872-15.591,1.471-26.379,1.848-33.081a34.734,34.734,0,0,1-1.462-4.351c-2.7-9.6-5.973-28.756-8.485-44.824-2.021-12.931-3.54-23.859-3.861-26.184-.043-.3-.065-.46-.065-.46l48.772-21.551c3.466,8.038,19.651,10.455,19.651,10.455a54.283,54.283,0,0,0,23.92-7.995Z" transform="translate(-355.181 -235.421)" fill="#6c63ff"/>
    <path id="Path_84" data-name="Path 84" d="M641.3,710.64s-2.065.707-5.422,1.709c-7.422,2.225-21.156,5.917-32.8,6.654-10.021.642-18.488-.9-20.037-7.44a6.909,6.909,0,0,1,2.329-7.023c6.125-5.678,22.124-7.713,34.812-8.411,3.583-.2,6.9-.286,9.656-.321,4.685-.061,7.756.035,7.756.035l.074.286Z" transform="translate(-417.058 -439.675)" fill="#a0616a"/>
    <path id="Path_85" data-name="Path 85" d="M564.411,126.578l-5.965-2.388s12.471-13.73,29.822-12.536l-4.88-5.373s11.929-4.776,22.773,7.76c5.7,6.59,12.3,14.336,16.408,23.062h6.388l-2.666,5.87,9.331,5.87-9.577-1.054a32.8,32.8,0,0,1,.26,9.737,12.6,12.6,0,0,1-4.613,8.241h0s-7.4-15.311-7.4-17.7v5.97s-5.964-5.373-5.964-8.954l-3.253,4.179-1.627-6.567-20.062,6.567,3.253-5.373-12.471,1.791,4.88-6.567s-14.1,7.76-14.64,14.327-4.669,12.789-4.669,12.789S548.686,135.533,564.411,126.578Z" transform="translate(-401.847 -105.389)" fill="#2f2e41"/>
    <path id="Path_86" data-name="Path 86" d="M774.537,501.926c-3.249,3.522-11.3,8.828-21.061,14.571-3.631,2.134-7.5,4.334-11.439,6.52-9.409,5.219-19.261,10.389-27.39,14.567-10.576,5.435-18.241,9.188-18.241,9.188s-.659-3.306-1.722-7.535c-1.423-5.661-3.566-12.979-5.8-16.22-.078-.113-.156-.217-.234-.321-.651-.855-1.306-1.353-1.952-1.353l32.283-20.011,13.951-8.65L722.88,468.688l-12.606-30.1,7.609-24.21,7.648-24.336h14.333s4.746,10.359,10.815,24.8c.907,2.16,1.844,4.412,2.8,6.737C765.96,451.952,781.525,494.356,774.537,501.926Z" transform="translate(-475.867 -266.562)" fill="#6c63ff"/>
    <path id="Path_87" data-name="Path 87" d="M564.059,726.082c-7.973,9.873-40.89-10.81-52.4-18.523-2.507-1.679-4-2.742-4-2.742l10.533-14.046,3.336-4.446s2.984,1.583,7.4,4.16c.16.1.321.191.486.286,3.8,2.234,8.581,5.154,13.4,8.411,6.65,4.5,13.374,9.63,17.708,14.463C564.753,718.37,566.7,722.807,564.059,726.082Z" transform="translate(-374.494 -434.316)" fill="#a0616a"/>
    <path id="Path_88" data-name="Path 88" d="M457.318,520.318a20.732,20.732,0,0,0-3.514.286c-9.973,1.714-12.914,10.741-13.751,16.788a31.165,31.165,0,0,0-.3,5.579l-8.81-6.776-3.21-2.468c-7.726-2.694-14.61-7.479-20.579-13.122a103.454,103.454,0,0,1-13.86-16.437,144.956,144.956,0,0,1-10.723-18.393,13.527,13.527,0,0,1-.186-11.474l10.91-24.314,15.946-35.537q.176-1.269.386-2.481c3.162-18.133,11.634-26.184,11.634-26.184h6.472l4.329,26.184,5.379,32.53-3.77,12.294-8.711,28.392,8.325,9.04Z" transform="translate(-302.89 -264.15)" fill="#6c63ff"/>
    <path id="Path_89" data-name="Path 89" d="M554.481,500.608l5.533,6.455c2.056-.392,4.2-.853,6.413-1.37l-1.589-5.086,3.886,4.533c23.424-5.761,52.458-16.962,52.458-16.962s-31.345,2.3-54.749-2.815a22.27,22.27,0,0,0-25.258,12.581c-2.47,5.644-2.082,10.534,6.678,10.534a57.86,57.86,0,0,0,8.829-.83Z" transform="translate(-392.728 -320.232)" fill="#6c63ff"/>
    <path id="Path_90" data-name="Path 90" d="M596.291,756.251v2.633A5.787,5.787,0,0,1,595.9,761a5.923,5.923,0,0,1-.421.868,5.829,5.829,0,0,1-5.01,2.846H396.753a5.829,5.829,0,0,1-5.01-2.846,5.929,5.929,0,0,1-.421-.868,5.787,5.787,0,0,1-.395-2.113v-2.633a5.824,5.824,0,0,1,5.826-5.826h11.166V749.2a.243.243,0,0,1,.243-.243h5.826a.243.243,0,0,1,.243.243v1.228h3.64V749.2a.243.243,0,0,1,.243-.243h5.826a.243.243,0,0,1,.243.243v1.228h3.644V749.2a.243.243,0,0,1,.243-.243h5.826a.243.243,0,0,1,.243.243v1.228h3.64V749.2a.243.243,0,0,1,.243-.243h5.826a.243.243,0,0,1,.243.243v1.228h3.64V749.2a.243.243,0,0,1,.243-.243H453.8a.243.243,0,0,1,.243.243v1.228h3.644V749.2a.242.242,0,0,1,.243-.243h5.826a.243.243,0,0,1,.243.243v1.228h3.64V749.2a.243.243,0,0,1,.243-.243h45.635a.243.243,0,0,1,.243.243v1.228H517.4V749.2a.243.243,0,0,1,.243-.243h5.826a.245.245,0,0,1,.243.243v1.228h3.64V749.2a.243.243,0,0,1,.243-.243h5.826a.243.243,0,0,1,.243.243v1.228h3.64V749.2a.243.243,0,0,1,.243-.243h5.826a.243.243,0,0,1,.243.243v1.228h3.644V749.2a.242.242,0,0,1,.243-.243h5.826a.242.242,0,0,1,.239.243v1.228h3.644V749.2a.243.243,0,0,1,.243-.243h5.826a.242.242,0,0,1,.243.243v1.228h3.64V749.2a.243.243,0,0,1,.243-.243h5.826a.243.243,0,0,1,.243.243v1.228h16.992A5.824,5.824,0,0,1,596.291,756.251Z" transform="translate(-308.401 -469.778)" fill="#3f3d56"/>
    <rect id="Rectangle_14" data-name="Rectangle 14" width="317.973" height="0.868" transform="translate(26.245 291.219)" fill="#3f3d56"/>
    <path id="Path_91" data-name="Path 91" d="M590.4,508.2H518.2v-1.488h-32.74V508.2h-72.5a4.884,4.884,0,0,0-4.884,4.884v98.867a4.884,4.884,0,0,0,4.884,4.884H590.4a4.884,4.884,0,0,0,4.884-4.884V513.087A4.884,4.884,0,0,0,590.4,508.2Z" transform="translate(-318.112 -332.62)" fill="#3f3d56"/>
    <circle id="Ellipse_18" data-name="Ellipse 18" cx="10.845" cy="10.845" r="10.845" transform="translate(172.868 199.254)" fill="none" stroke="#d0cde1" stroke-miterlimit="10" stroke-width="2"/>
    <circle id="Ellipse_19" data-name="Ellipse 19" cx="10.845" cy="10.845" r="10.845" transform="translate(169.398 203.158)" fill="#d0cde1"/>
    <rect id="Rectangle_15" data-name="Rectangle 15" width="12.146" height="12.146" transform="translate(34.897 286.837)" fill="#d0cde1"/>
    <path id="Path_92" data-name="Path 92" d="M292.136,744.612v14.749h14.749V744.612Zm14.107,14.107H292.774V745.254h13.469Z" transform="translate(-252.465 -467.319)" fill="#3f3d56"/>
    <rect id="Rectangle_16" data-name="Rectangle 16" width="12.146" height="12.146" transform="translate(315.998 286.837)" fill="#d0cde1"/>
    <path id="Path_93" data-name="Path 93" d="M940.136,744.612v14.749h14.749V744.612Zm14.107,14.107H940.774V745.254h13.469Z" transform="translate(-619.365 -467.319)" fill="#3f3d56"/>
    <circle id="Ellipse_20" data-name="Ellipse 20" cx="34.418" cy="34.418" r="34.418" transform="translate(6.611 30.987)" fill="#6c63ff"/>
    <path id="Path_94" data-name="Path 94" d="M269.144,161.491a37.2,37.2,0,0,0-9.387,0,36.6,36.6,0,0,0-30.2,25.469,36.1,36.1,0,0,0-1.585,9.4c-.016.443-.026.892-.026,1.34a36.54,36.54,0,0,0,36.5,36.5c.777,0,1.554-.026,2.321-.073a36.1,36.1,0,0,0,5.35-.74,36.508,36.508,0,0,0-2.978-71.9Zm6.732,69.779h-.005a35.1,35.1,0,0,1-9.1,1.81c-.767.052-1.544.078-2.321.078A35.5,35.5,0,0,1,228.99,197.7c0-.448.01-.9.026-1.34a35.461,35.461,0,1,1,46.86,34.913Z" transform="translate(-216.122 -136.986)" fill="#3f3d56"/>
    <rect id="Rectangle_17" data-name="Rectangle 17" width="1.043" height="7.301" transform="translate(47.808 27.337)" fill="#3f3d56"/>
    <rect id="Rectangle_18" data-name="Rectangle 18" width="1.043" height="7.301" transform="translate(24.362 37.481) rotate(-45)" fill="#3f3d56"/>
    <rect id="Rectangle_19" data-name="Rectangle 19" width="1.043" height="7.301" transform="translate(14.955 61.233) rotate(-90)" fill="#3f3d56"/>
    <rect id="Rectangle_20" data-name="Rectangle 20" width="1.043" height="7.301" transform="translate(25.099 84.679) rotate(-135)" fill="#3f3d56"/>
    <rect id="Rectangle_21" data-name="Rectangle 21" width="1.043" height="7.301" transform="translate(67.135 42.642) rotate(-135)" fill="#3f3d56"/>
    <rect id="Rectangle_22" data-name="Rectangle 22" width="1.043" height="7.301" transform="translate(74.403 61.233) rotate(-90)" fill="#3f3d56"/>
    <rect id="Rectangle_23" data-name="Rectangle 23" width="1.043" height="7.301" transform="translate(66.398 79.517) rotate(-45)" fill="#3f3d56"/>
    <rect id="Rectangle_24" data-name="Rectangle 24" width="1.043" height="7.301" transform="translate(47.808 86.785)" fill="#3f3d56"/>
    <path id="Path_95" data-name="Path 95" d="M310.257,239.853a2.607,2.607,0,0,0-3.129,0,2.684,2.684,0,0,0-.746.876,2.608,2.608,0,1,0,3.875-.876Zm-1.564,3.65a1.569,1.569,0,0,1-1.564-1.564,1.592,1.592,0,0,1,.276-.887,1.563,1.563,0,1,1,1.288,2.451Z" transform="translate(-260.363 -181.228)" fill="#3f3d56"/>
    <rect id="Rectangle_25" data-name="Rectangle 25" width="9.387" height="9.387" transform="translate(43.636 15.343)" fill="#3f3d56"/>
    <ellipse id="Ellipse_21" data-name="Ellipse 21" cx="12.516" cy="4.433" rx="12.516" ry="4.433" transform="translate(35.814 8.042)" fill="#3f3d56"/>
    <rect id="Rectangle_26" data-name="Rectangle 26" width="3.129" height="17.73" transform="translate(46.765 40.895)" fill="#3f3d56"/>
    <rect id="Rectangle_27" data-name="Rectangle 27" width="98.038" height="1.043" transform="translate(0 95.626)" fill="#3f3d56"/>
    <path id="Path_96" data-name="Path 96" d="M303.232,664.743c.4,13.86-7.693,18.939-17.856,19.236q-.354.01-.705.013-.707.005-1.4-.024c-9.191-.382-16.467-5.261-16.843-18.15-.39-13.339,16.167-30.671,17.409-31.953h0l.071-.073S302.827,650.884,303.232,664.743Z" transform="translate(-237.905 -404.571)" fill="#d0cde1"/>
    <path id="Path_97" data-name="Path 97" d="M297.871,681.881l6.456-9.6-6.443,10.633.013,1.08q-.707.005-1.4-.024l.32-13.887-.009-.107.012-.021.031-1.312-7.07-10.265,7.062,9.283.025.277.242-10.492L291,646.805l6.124,8.8-.064-21.737V633.8l0,.071L297.471,651l5.565-6.959-5.547,8.435.121,9.385,5.121-9.159-5.1,10.539.068,5.218,7.448-12.759-7.425,14.579Z" transform="translate(-251.132 -404.574)" fill="#3f3d56"/>
    <path id="Path_98" data-name="Path 98" d="M951.232,664.743c.4,13.86-7.693,18.939-17.856,19.236q-.354.01-.705.013-.707.005-1.4-.024c-9.191-.382-16.467-5.261-16.843-18.15-.39-13.339,16.167-30.671,17.409-31.953h0l.071-.073S950.827,650.884,951.232,664.743Z" transform="translate(-604.805 -404.571)" fill="#d0cde1"/>
    <path id="Path_99" data-name="Path 99" d="M945.871,681.881l6.456-9.6-6.443,10.633.013,1.08q-.707.005-1.4-.024l.32-13.887-.009-.107.012-.021.031-1.312-7.07-10.265,7.062,9.283.025.277.242-10.492L939,646.805l6.124,8.8-.064-21.737V633.8l0,.071L945.471,651l5.565-6.959-5.547,8.435.121,9.385,5.121-9.159-5.1,10.539.068,5.218,7.448-12.759-7.425,14.579Z" transform="translate(-618.032 -404.574)" fill="#3f3d56"/>
  </g>
</svg>
