<svg id="network" xmlns="http://www.w3.org/2000/svg" width="32" height="32" viewBox="0 0 32 32">
  <path id="Path_10" data-name="Path 10" d="M26,32H6a6,6,0,0,1-6-6V6A6,6,0,0,1,6,0H26a6,6,0,0,1,6,6V26A6,6,0,0,1,26,32Z" fill="#ffe6e2"/>
  <path id="Path_11" data-name="Path 11" d="M16,11.892a4.1,4.1,0,1,0,4.1,4.1A4.1,4.1,0,0,0,16,11.892Zm0,6.77A2.665,2.665,0,1,1,18.668,16,2.665,2.665,0,0,1,16,18.662Z" fill="#fd00fd"/>
  <path id="Path_12" data-name="Path 12" d="M19.3,8.05c-1.472-.069-5.118-.066-6.592,0A4.783,4.783,0,0,0,9.35,9.344C7.811,10.883,8.008,12.956,8.008,16c0,3.112-.173,5.138,1.342,6.653C10.894,24.194,13,23.992,16,23.992c3.683,0,7.713.353,7.947-4.7.069-1.473.066-5.118,0-6.591C23.818,9.893,22.31,8.19,19.3,8.05Zm2.329,13.582c-1.009,1.009-2.408.919-5.646.919-3.333,0-4.67.049-5.646-.929-1.124-1.118-.92-2.914-.92-5.635,0-6.65.381-6.565,6.556-6.565l.03.02c6.622,0,6.554.429,6.554,6.555C22.557,19.291,22.62,20.636,21.628,21.632Z" fill="#fd00fd"/>
  <circle id="Ellipse_1" data-name="Ellipse 1" cx="0.959" cy="0.959" r="0.959" transform="translate(19.312 10.771)" fill="#fd907e"/>
</svg>
