<?xml version="1.0" encoding="iso-8859-1"?>
<!-- Generator: Adobe Illustrator 19.0.0, SVG Export Plug-In . SVG Version: 6.00 Build 0)  -->
<svg version="1.1" id="Capa_1" xmlns="http://www.w3.org/2000/svg" xmlns:xlink="http://www.w3.org/1999/xlink" x="0px" y="0px"
	 viewBox="0 0 197.973 197.973" style="enable-background:new 0 0 197.973 197.973;" xml:space="preserve">
<g>
	<path style="fill:#EA3457;" d="M90.628,73.508c4.004-4.004,4.004-10.498,0-14.502s-10.498-4.004-14.502,0
		s-8.839,15.331-4.833,19.337C75.297,82.347,86.624,77.512,90.628,73.508z"/>
	<path style="fill:#EA3457;" d="M75.776,83.246c-2.881,0-5.245-0.838-6.898-2.492c-5.902-5.9-0.143-19.185,4.835-24.163
		c2.58-2.582,6.013-4.004,9.665-4.004s7.083,1.422,9.665,4.004c2.58,2.582,4.002,6.013,4.002,9.665c0,3.651-1.422,7.083-4.002,9.663
		l0,0l0,0l0,0c-2.463,2.463-6.803,4.922-11.056,6.263C79.734,82.893,77.645,83.246,75.776,83.246z M83.378,59.414
		c-1.828,0-3.545,0.712-4.837,2.004c-3.616,3.616-6.644,12.701-4.835,14.51c0.522,0.524,2.613,0.884,6.228-0.254
		c3.715-1.172,6.897-3.195,8.281-4.581l0,0c1.292-1.292,2.004-3.011,2.004-4.837c0-1.828-0.712-3.545-2.004-4.838
		C86.923,60.126,85.204,59.414,83.378,59.414z"/>
	<path style="fill:#EA3457;" d="M138.969,121.847c4.004-4.004,4.004-10.498,0-14.502c-4.004-4.004-10.498-4.004-14.502,0
		s-8.839,15.331-4.833,19.337C123.636,130.686,134.964,125.853,138.969,121.847z"/>
	<path style="fill:#EA3457;" d="M124.143,131.594c-2.693,0-5.144-0.72-6.924-2.5c-5.9-5.9-0.143-19.185,4.833-24.163
		c5.33-5.327,14-5.327,19.33,0c5.33,5.33,5.33,14,0,19.33C137.906,127.739,130.378,131.594,124.143,131.594z M131.717,107.759
		c-1.753,0-3.504,0.667-4.838,2c-3.615,3.616-6.642,12.701-4.833,14.51c1.807,1.807,10.894-1.22,14.508-4.833
		c2.668-2.668,2.668-7.008,0-9.677C135.221,108.424,133.47,107.759,131.717,107.759z"/>
</g>
<path style="fill:#FFFFFF;" d="M61.316,122.078c-5.074,2.08-9.255,5.89-11.815,10.694c-1.505-0.42-3.062-0.717-4.7-0.717
	c-9.709,0-17.579,7.871-17.579,17.579c0,1.178,0.126,2.324,0.346,3.437c-4.291,3.56-7.301,8.612-8.211,14.372
	c-0.742-0.125-1.492-0.229-2.27-0.229c-7.552,0-13.672,6.122-13.672,13.672c0,7.552,6.122,13.672,13.672,13.672h50.785h14.162
	h50.785c9.709,0,17.579-7.871,17.579-17.579c0-9.709-7.871-17.579-17.579-17.579c-1.64,0-3.195,0.297-4.7,0.717
	c-3.869-7.262-11.448-12.221-20.207-12.402c-2.191-4.625-6.866-7.847-12.326-7.847c-0.778,0-1.527,0.104-2.27,0.229
	c-0.806-5.094-3.244-9.644-6.767-13.09 M82.509,167.262c-0.01-0.015-0.015-0.032-0.026-0.048h1.867
	c-0.014,0.077-0.034,0.152-0.046,0.229C83.716,167.344,83.115,167.294,82.509,167.262z"/>
<path style="fill:#602F75;" d="M132.817,197.973H17.086C7.665,197.973,0,190.309,0,180.886c0-9.281,7.438-16.857,16.667-17.08
	c1.295-4.572,3.794-8.731,7.252-12.052c-0.073-0.712-0.111-1.42-0.111-2.12c0-11.575,9.417-20.992,20.992-20.992
	c0.995,0,1.995,0.084,3.043,0.258c2.964-4.448,7.211-7.945,12.177-9.984c1.746-0.715,3.738,0.119,4.453,1.864
	s-0.118,3.736-1.862,4.453c-4.313,1.768-7.898,5.016-10.098,9.141c-0.753,1.415-2.388,2.115-3.929,1.683
	c-1.442-0.403-2.645-0.59-3.784-0.59c-7.811,0-14.165,6.356-14.165,14.165c0,0.899,0.096,1.831,0.282,2.772
	c0.244,1.229-0.205,2.492-1.169,3.292c-3.768,3.128-6.262,7.489-7.018,12.278c-0.142,0.899-0.638,1.705-1.379,2.239
	c-0.741,0.532-1.661,0.748-2.56,0.596c-0.558-0.096-1.149-0.181-1.703-0.181c-5.656,0-10.259,4.601-10.259,10.259
	s4.601,10.262,10.257,10.262h115.731c7.811,0,14.165-6.356,14.165-14.167c0-7.81-6.356-14.165-14.165-14.165
	c-1.137,0-2.338,0.188-3.784,0.592c-1.539,0.434-3.176-0.271-3.929-1.683c-3.403-6.385-10.018-10.445-17.265-10.593
	c-1.294-0.027-2.461-0.783-3.014-1.952c-1.724-3.637-5.265-5.897-9.242-5.897c-0.509,0-1.053,0.073-1.71,0.181
	c-0.896,0.154-1.818-0.067-2.557-0.599c-0.739-0.532-1.232-1.336-1.376-2.236c-0.676-4.275-2.674-8.143-5.782-11.184
	c-1.348-1.318-1.37-3.48-0.051-4.826c1.319-1.347,3.48-1.37,4.826-0.053c3.4,3.326,5.81,7.393,7.072,11.894
	c5.68,0.145,10.941,3.181,13.974,7.96c8.045,0.768,15.324,5.13,19.792,11.829c1.05-0.176,2.048-0.259,3.043-0.259
	c11.575,0,20.992,9.417,20.992,20.992C153.809,188.554,144.391,197.973,132.817,197.973z M84.359,170.861
	c-0.207,0-0.415-0.017-0.621-0.051c-0.461-0.077-0.932-0.114-1.408-0.14c-1.077-0.056-2.063-0.618-2.662-1.516
	c-0.044-0.067-0.09-0.142-0.133-0.217c-0.584-0.998-0.626-2.234-0.092-3.277c0.584-1.142,1.758-1.86,3.04-1.86h1.867
	c1.002,0,1.952,0.44,2.601,1.201c0.649,0.763,0.928,1.773,0.768,2.761c-0.012,0.067-0.048,0.249-0.063,0.316
	c-0.145,0.894-0.637,1.654-1.374,2.181C85.714,170.668,85.045,170.861,84.359,170.861z"/>
<path style="fill:#FFFFFF;" d="M119.754,102.39l-24.17-24.17l72.61-72.61c1.073-1.073,2.587-1.664,4.367-1.703l21.999-0.493
	l-0.493,21.999c-0.039,1.78-0.63,3.294-1.703,4.367L119.754,102.39z"/>
<path style="fill:#602F75;" d="M119.754,105.803c-0.874,0-1.748-0.333-2.413-1l-24.17-24.17c-1.333-1.333-1.333-3.494,0-4.826
	l72.61-72.61c1.71-1.71,4.029-2.645,6.707-2.703l21.996-0.492c0.966-0.029,1.831,0.338,2.49,0.998
	c0.659,0.659,1.021,1.558,0.998,2.49l-0.493,21.999c-0.06,2.679-0.995,4.999-2.703,6.707l-72.608,72.608
	C121.501,105.47,120.628,105.803,119.754,105.803z M100.41,78.22l19.342,19.343l70.197-70.197c0.558-0.558,0.691-1.413,0.705-2.031
	l0.413-18.429l-18.43,0.411c-0.62,0.014-1.473,0.147-2.031,0.705L100.41,78.22z"/>
<path style="fill:#FFFFFF;" d="M151.054,119.431l-24.17-24.17l24.17-24.17l0,0C164.402,84.439,164.402,106.081,151.054,119.431
	L151.054,119.431z"/>
<path style="fill:#602F75;" d="M151.054,122.842c-0.874,0-1.746-0.333-2.413-1l-24.17-24.17c-1.333-1.333-1.333-3.494,0-4.826
	l24.17-24.17c1.331-1.333,3.494-1.333,4.826,0c7.101,7.1,11.011,16.541,11.011,26.583s-3.912,19.483-11.011,26.583
	C152.802,122.51,151.928,122.842,151.054,122.842z M131.711,95.259l19.21,19.212c4.362-5.437,6.729-12.141,6.729-19.212
	s-2.369-13.775-6.729-19.212L131.711,95.259z"/>
<path style="fill:#FFFFFF;" d="M78.543,46.92l24.17,24.17l24.17-24.17l0,0C113.535,33.57,91.892,33.57,78.543,46.92L78.543,46.92z"
	/>
<path style="fill:#602F75;" d="M102.713,74.503c-0.874,0-1.746-0.333-2.413-1l-24.17-24.17c-0.64-0.64-1-1.509-1-2.413
	s0.36-1.773,1-2.413c14.659-14.659,38.509-14.655,53.168,0c0.64,0.64,1,1.509,1,2.413s-0.36,1.773-1,2.413l-24.172,24.17
	C104.46,74.17,103.586,74.503,102.713,74.503z M83.502,47.053l19.21,19.21l19.21-19.21C110.734,38.098,94.693,38.096,83.502,47.053z
	"/>
<g>
	<ellipse style="fill:#00E7FF;" cx="167.97" cy="30" rx="6.844" ry="6.844"/>
	<path style="fill:#00E7FF;" d="M167.972,40.247c-2.625,0-5.25-1-7.248-2.999c-3.995-3.997-3.995-10.498,0-14.495
		c3.997-3.997,10.499-3.997,14.496,0c3.997,3.997,3.997,10.498,0,14.495C173.222,39.246,170.597,40.247,167.972,40.247z
		 M167.972,26.58c-0.877,0-1.753,0.333-2.42,1c-1.335,1.335-1.335,3.507,0,4.842c1.333,1.333,3.505,1.333,4.84,0
		c1.335-1.335,1.335-3.507,0-4.842C169.727,26.912,168.849,26.58,167.972,26.58z"/>
	<ellipse style="fill:#00E7FF;" cx="146.228" cy="51.749" rx="6.844" ry="6.844"/>
	<path style="fill:#00E7FF;" d="M146.219,62c-2.625,0-5.25-1-7.248-2.999c-3.995-3.997-3.995-10.498,0-14.495
		c3.997-3.997,10.499-3.997,14.496,0c3.997,3.997,3.997,10.498,0,14.495C151.469,61,148.844,62,146.219,62z M146.219,48.333
		c-0.877,0-1.753,0.333-2.42,1c-1.335,1.335-1.335,3.507,0,4.842c1.333,1.333,3.505,1.333,4.84,0c1.335-1.335,1.335-3.507,0-4.842
		C147.973,48.667,147.096,48.333,146.219,48.333z"/>
	<path style="fill:#00E7FF;" d="M35.886,90.3c-0.874,0-1.748-0.333-2.413-1c-1.333-1.333-1.333-3.494,0-4.826l25.636-25.636
		c1.331-1.333,3.495-1.333,4.826,0c1.333,1.333,1.333,3.494,0,4.826L38.3,89.3C37.634,89.967,36.76,90.3,35.886,90.3z"/>
	<path style="fill:#00E7FF;" d="M52.977,148.41c-0.874,0-1.746-0.333-2.413-1c-1.333-1.333-1.333-3.494,0-4.826l46.145-46.147
		c1.331-1.333,3.494-1.333,4.826,0s1.333,3.494,0,4.826L55.39,147.41C54.725,148.077,53.851,148.41,52.977,148.41z"/>
	<path style="fill:#00E7FF;" d="M148.687,151.828c-0.874,0-1.748-0.333-2.413-1c-1.333-1.333-1.333-3.494,0-4.826l22.219-22.219
		c1.331-1.333,3.495-1.333,4.826,0c1.333,1.333,1.333,3.494,0,4.826L151.1,150.828C150.434,151.496,149.561,151.828,148.687,151.828
		z"/>
</g>
<g>
	<path style="fill:#602F75;" d="M44.432,174.046H34.178c-1.884,0-3.413-1.529-3.413-3.413c0-1.884,1.529-3.413,3.413-3.413h10.254
		c1.884,0,3.413,1.529,3.413,3.413C47.845,172.517,46.318,174.046,44.432,174.046z"/>
	<path style="fill:#602F75;" d="M126.469,163.792h-6.837c-1.884,0-3.413-1.529-3.413-3.413c0-1.884,1.529-3.413,3.413-3.413h6.837
		c1.884,0,3.413,1.529,3.413,3.413C129.883,162.263,128.354,163.792,126.469,163.792z"/>
</g>
<g>
</g>
<g>
</g>
<g>
</g>
<g>
</g>
<g>
</g>
<g>
</g>
<g>
</g>
<g>
</g>
<g>
</g>
<g>
</g>
<g>
</g>
<g>
</g>
<g>
</g>
<g>
</g>
<g>
</g>
</svg>
